<svg width="40" height="40" viewBox="0 0 40 40" fill="none" xmlns="http://www.w3.org/2000/svg">
<rect width="40" height="40" rx="5" fill="#0D9677"/>
<path fill-rule="evenodd" clip-rule="evenodd" d="M21.7071 12.5397H28.2243C28.6591 12.5397 29.0117 12.8511 29.0059 13.2449V26.0205C29.0059 26.4084 28.6591 26.7257 28.2243 26.7257H21.7071V29L10.9941 27.1547V12.6572L21.7071 11V12.5397ZM16.9883 23L18.4456 23.0999L16.7767 19.7091L18.4515 16.3183L17.0705 16.3947L16.0421 18.8805L15.1724 16.4946L13.7914 16.571L15.2312 19.7796L13.6739 22.7825L15.0137 22.9001L16.001 20.4084L16.9883 23ZM21.6895 26.1322H28.3301V13.2037H21.6308V14.4907H23.2762V15.9069H21.6308V16.7414H23.2762V18.1577H21.6308V18.9921H23.2762V20.4084H21.6366L21.6425 21.2488H23.2762V22.665H21.6543L21.6601 23.4995H23.2762V24.9157H21.6778L21.6895 26.1322ZM24.176 14.4895H26.9556V15.9058H24.176V14.4895ZM26.9556 16.7412H24.176V18.1575H26.9556V16.7412ZM24.176 18.9912H26.9556V20.4075H24.176V18.9912ZM26.9556 21.25H24.176V22.6663H26.9556V21.25ZM24.176 23.5H26.9556V24.9163H24.176V23.5Z" fill="white"/>
</svg>
